#!OML:ASF F:\VICON\USERDATA\INSTALL\rory3\rory3.ASF
:FULLY-SPECIFIED
:DEGREES
82
root 0.6762877319461637 19.225796101682963 11.195123521386412 13.390807861633267 6.802539011893495 -1.8267577798096974
lfemur -11.258521749656557 6.3758417489245796 -17.24896997713757
ltibia 15.59976951325838
lfoot -6.938730862800377 0.4350376316217801
ltoes -9.736305395939675
rfemur -12.005144189526655 -3.9198255024431754 20.850384732061528
rtibia 16.163195910516563
rfoot -11.398368200388202 -0.926417075813728
rtoes 13.241802151295335
lowerback -5.514095973267722 -0.07688727276097104 1.2913084909186838
upperback -0.28618437943354436 -0.03557827621136023 2.3006185540034534
thorax -2.792994414517952 -0.006454950084604061 1.265649907202494
lowerneck -10.167076082371056 -4.300426231307515 -3.0317391493039505
upperneck 17.86663446344218 -5.907629431072148 2.785841731125151
head 7.756217885910766 -3.0007336726772404 0.8901548655578918
lclavicle 1.8753069023558743e-16 -2.3523736416788476e-15
lhumerus -17.48483880430438 -4.812397836202903 83.94063069178648
lradius 25.13885887589678
lwrist 15.914222756016652
lhand -22.673723998791324 -5.290512609742989
lfingers 7.12502
lthumb 3.1842098041315325 23.64307054299775
rclavicle 1.8577433105439806e-16 -2.355507904838501e-15
rhumerus -33.53443133774807 -22.22423153822051 -69.82668288044538
rradius 22.019217331207564
rwrist 42.38225350701782
rhand -22.28276903168656 -27.3144996169693
rfingers 7.12502
rthumb 3.343215373844579 -57.41062870325949
83
root 0.6589187661832339 19.21358897114969 11.398719064839655 13.574163735180203 6.753946279763719 -1.914601467395027
lfemur -11.342251695153703 6.130641773581435 -17.152833305849843
ltibia 15.548094452894471
lfoot -6.207206970894179 0.5166183318563986
ltoes -10.305596392831095
rfemur -11.806157051017212 -4.175764390370235 20.91703948081515
rtibia 16.294027991675392
rfoot -11.531969098746996 -0.667854373601477
rtoes 12.880797657560393
lowerback -5.859608587676993 -0.143298146622851 1.3292056431669415
upperback -0.3430407484480513 -0.16175479666601175 2.325312651198934
thorax -2.5663218958073766 -0.06115245602456573 1.2596106512918666
lowerneck -10.291014964325539 -4.023257745658968 -2.9713196211487896
upperneck 17.80635189967064 -5.488479197931521 2.611068099426829
head 7.795717990375573 -2.7673601967514014 0.8532827699661266
lclavicle 1.8645859514630841e-16 -2.3540763527208815e-15
lhumerus -16.40977239967054 -6.0860609495836595 83.75159745786523
lradius 26.118912226082273
lwrist 16.44863743240373
lhand -23.333845451001963 -5.5493742125062
lfingers 7.12502
lthumb 2.9696927636169574 23.816379224896913
rclavicle 1.8554115366298082e-16 -2.355875715224051e-15
rhumerus -33.65704501111036 -22.5007754114557 -70.1147570229312
rradius 21.981734845453442
rwrist 42.523494663859736
rhand -21.959744160205794 -27.206465845481436
rfingers 7.12502
rthumb 3.4179006436318304 -57.308616469605106
84
root 0.6414657328971793 19.16461358159405 11.394493790896009 13.863104603003634 6.943805064785359 -1.9669108846963574
lfemur -11.405659426619309 5.815999493914709 -17.05073945054961
ltibia 15.587055621524387
lfoot -5.556578123322592 0.37647516522589974
ltoes -10.74083835142356
rfemur -11.601743452876313 -4.52135307868617 20.94025494491294
rtibia 16.679650255869767
rfoot -11.749414413470147 -0.43429490000829496
rtoes 12.876249393546459
lowerback -6.025419425832853 -0.1932488706561202 1.3415955144722789
upperback -0.37572386889149323 -0.23783911646285147 2.336521448893679
thorax -2.256179304719447 -0.10319007924010146 1.2701111037307458
lowerneck -10.371271922529449 -3.834426785342571 -2.9088589192459318
upperneck 17.632596610665725 -5.23047556039643 2.491826462344351
head 7.730195840521791 -2.6067023047756996 0.8184828044333143
lclavicle 1.852981755790619e-16 -2.355989499279826e-15
lhumerus -15.815340693477435 -7.077127701931255 83.89277610231387
lradius 26.629245767485994
lwrist 16.340728368232213
lhand -23.91174394846529 -5.813863252612531
lfingers 7.12502
lthumb 2.7839142936376717 23.99649329772093
rclavicle 1.8469322483479407e-16 -2.357225251254224e-15
rhumerus -33.50589006244924 -22.512020693225423 -70.50193795177046
rradius 22.053710224964355
rwrist 42.39831066325473
rhand -21.63842173148176 -27.100779304464357
rfingers 7.12502
rthumb 3.5038198059101893 -57.18275079567886
85
root 0.6183245502711217 19.122660656516228 11.308369561944447 13.833652756827972 7.163812317146402 -1.970760869546174
lfemur -11.24362936851953 5.6007916427380255 -16.998916120366868
ltibia 15.25301893470564
lfoot -4.987632954331753 0.1406327440125965
ltoes -10.992569598970356
rfemur -11.510203362592227 -4.877075591643602 20.92614158043019
rtibia 17.204699515565654
rfoot -12.0267529874239 -0.18376319328717594
rtoes 12.896622907010176
lowerback -6.157500074012276 -0.2206891486020527 1.340649388339009
upperback -0.36526789123870884 -0.2707139063279527 2.343490820672539
thorax -2.060948317878623 -0.11953112945623619 1.3016012549581988
lowerneck -10.405623415842204 -3.756245630860035 -2.8145420625713573
upperneck 17.529575595826618 -5.16139158298924 2.4306014439537464
head 7.697247807023896 -2.541455975760344 0.7912034285165062
lclavicle 1.8567788175232668e-16 -2.3553429033404315e-15
lhumerus -15.669857413995214 -7.639905474625566 84.38180587489775
lradius 26.441000888865734
lwrist 15.918412893252604
lhand -24.334305628270062 -6.009002406287346
lfingers 7.12502
lthumb 2.6475872680189587 23.988814210746842
rclavicle 1.8513995209264327e-16 -2.3565146081224863e-15
rhumerus -32.98285870822654 -22.270454466197553 -71.03269664694514
rradius 22.219325820755575
rwrist 42.164237088841844
rhand -21.439684497796705 -27.054752805970807
rfingers 7.12502
rthumb 3.5874817606332066 -57.06426482366201
86
root 0.5987448275367305 19.106325707447965 11.31554916837614 13.807120935872785 7.33080487803992 -1.9775702475837398
lfemur -11.227518807976832 5.393813306094255 -16.892239060079987
ltibia 15.011887229201907
lfoot -4.403671100625784 -0.04003635671245398
ltoes -10.893490879924626
rfemur -11.350552732657574 -5.237503577963889 20.93969192652224
rtibia 17.769566069820897
rfoot -12.237907369667834 0.03152651865535683
rtoes 13.020464182872551
lowerback -6.218701717781077 -0.20900726639705608 1.336958913322026
upperback -0.2990047638599995 -0.2607837620770243 2.3514194479216464
thorax -1.9525956815476984 -0.11450576757000885 1.3129643202736325
lowerneck -10.440131490078697 -3.7230657834169554 -2.7207761560132298
upperneck 17.382197214973246 -5.187756395598408 2.3947163237097646
head 7.606240379415059 -2.5246214840300394 0.7664584410033716
lclavicle 1.862996031688435e-16 -2.3542701261622914e-15
lhumerus -16.014310718555706 -8.010087220706298 85.07520215394173
lradius 25.650290579709896
lwrist 15.147160345992756
lhand -24.638935267193588 -6.10312839648749
lfingers 7.12502
lthumb 2.545679092222998 24.00656695691338
rclavicle 1.854449096767949e-16 -2.356027788674275e-15
rhumerus -32.01379198888495 -21.81023623860733 -71.58740540756781
rradius 22.399594046517944
rwrist 41.5916605783713
rhand -21.32805642963137 -27.05003560558495
rfingers 7.12502
rthumb 3.670851923877649 -56.934995283593096
87
root 0.5825344031386316 19.077316246617926 11.27220771620301 13.915982517910306 7.436113163962974 -1.9802261624400872
lfemur -11.608411169320322 5.159550868070683 -16.781648925627035
ltibia 15.00354801267721
lfoot -3.933413137109069 -0.14866398280572124
ltoes -10.62922296485147
rfemur -11.350203065886246 -5.526283279153358 20.930471804398806
rtibia 18.547852011207393
rfoot -12.182231857116248 0.11395895656167054
rtoes 13.24871528496752
lowerback -6.322041536109847 -0.18551297971514696 1.3267639262754376
upperback -0.21077810512670525 -0.25521717102155567 2.3414472721609485
thorax -1.8477380357678257 -0.10926773565526324 1.312290238127013
lowerneck -10.505666796300439 -3.7212439598399945 -2.6361078302755927
upperneck 17.20900514730033 -5.229401980939563 2.402382758400175
head 7.52942790248524 -2.5207676630070766 0.7658362197733375
lclavicle 1.8635254148655227e-16 -2.354122473979226e-15
lhumerus -16.609225101726057 -8.021857329790622 85.70990922049026
lradius 24.487225606970046
lwrist 13.634454582481755
lhand -24.845073507166994 -6.238125911138093
lfingers 7.12502
lthumb 2.4069671442915115 23.944571145825538
rclavicle 1.8575371739501362e-16 -2.355533185839088e-15
rhumerus -30.721628714059488 -21.18656215157231 -72.23569802255378
rradius 22.463148252448946
rwrist 41.03340223731131
rhand -21.22412588090079 -27.024799117064504
rfingers 7.12502
rthumb 3.8330466268670516 -56.79943178898009
88
root 0.5629145143267309 19.04713769573748 11.202708466862351 14.10335215437348 7.428978245034671 -1.9387218667348887
lfemur -11.693959641597498 5.086083393092068 -16.721735552525587
ltibia 14.655830916584081
lfoot -3.5290048808589525 -0.15866720761494335
ltoes -10.419930489395883
rfemur -11.107510064973752 -5.727153867317083 20.923138224533112
rtibia 19.210393136629904
rfoot -12.02739156500038 0.1346308282030333
rtoes 13.40163631282125
lowerback -6.327265988586181 -0.1485684999468498 1.2930632367869044
upperback -0.13364772212835963 -0.22571513592883535 2.316072392732547
thorax -1.7643258000507624 -0.09994973940921517 1.3304921784599966
lowerneck -10.626722197224696 -3.7275355010151365 -2.5960694154494606
upperneck 17.054074734304805 -5.303223121310704 2.4989548931504686
head 7.4437366732878445 -2.5268312448891765 0.7974154385162809
lclavicle 1.8696564232381354e-16 -2.353069075937131e-15
lhumerus -17.395117064257906 -7.6433174143617215 86.15662032250111
lradius 23.20537332072383
lwrist 11.853463221117241
lhand -24.94191363165821 -6.302681199424697
lfingers 7.12502
lthumb 2.283674475205375 23.953067512525468
rclavicle 1.8631676685720552e-16 -2.3546366283071658e-15
rhumerus -29.36569362292214 -20.427477894705564 -72.97730492934454
rradius 22.60244981408358
rwrist 40.521535553559595
rhand -21.13619591994181 -26.96693802976695
rfingers 7.12502
rthumb 4.000253673559459 -56.6740059111533
89
root 0.5477626850951174 19.008908612188655 11.083482050244848 14.012555246750592 7.314428768207511 -1.927722718123625
lfemur -11.812258903610374 5.195453263077523 -16.719235152060204
ltibia 14.188101063051821
lfoot -3.247816959784502 -0.13832780192098948
ltoes -10.40496508988834
rfemur -10.975247799657383 -5.927129215401385 20.94064503669671
rtibia 19.910997958999836
rfoot -11.931411992068295 0.3188277259392738
rtoes 13.378357696628978
lowerback -6.497197637567883 -0.1309757389315429 1.2486079689676677
upperback -0.08812620384930336 -0.20850443306259295 2.277247973637015
thorax -1.7547374941132405 -0.0862906719920989 1.3283864361955438
lowerneck -10.767071300513495 -3.7396340662716785 -2.5640086943395324
upperneck 16.941270553809034 -5.356178170528805 2.5603003104041573
head 7.421385295897713 -2.511700323398847 0.8151931572814258
lclavicle 1.8691633665601118e-16 -2.3530725647803966e-15
lhumerus -18.26319426404994 -6.708483249999105 86.36513911057051
lradius 21.73352821833359
lwrist 10.043717570504757
lhand -24.949803351025867 -6.358263467523519
lfingers 7.12502
lthumb 2.2065309778637845 23.961566012600642
rclavicle 1.8636038182237868e-16 -2.3545644330393057e-15
rhumerus -28.00988652198416 -19.60576763724615 -73.71070215020131
rradius 22.88010582544076
rwrist 39.854005435974074
rhand -21.057079638435624 -26.886458674063363
rfingers 7.12502
rthumb 4.064931087156369 -56.59304228886462
